<?xml version="1.0" encoding="utf-8"?>
<!-- Generator: Adobe Illustrator 18.1.1, SVG Export Plug-In . SVG Version: 6.00 Build 0)  -->
<!DOCTYPE svg PUBLIC "-//W3C//DTD SVG 1.1//EN" "http://www.w3.org/Graphics/SVG/1.1/DTD/svg11.dtd">
<svg version="1.1" id="Layer_1" xmlns="http://www.w3.org/2000/svg" xmlns:xlink="http://www.w3.org/1999/xlink" x="0px" y="0px"
	 viewBox="-481.6 369 31 31" enable-background="new -481.6 369 31 31" xml:space="preserve">
<path fill="none" enable-background="new    " d="z"/>
<g>
	<path fill="#FFFFFF" d="M-459.4,384.5c-2.8-1.1-6.4-2.9-8.5-4.8l1.5,4.3h-6.5v1h6.5l-1.5,4.3C-465.7,387.4-462.2,385.6-459.4,384.5
		z"/>
	<g>
		<path fill="#FFFFFF" d="M-466.1,400c-8.5,0-15.5-7-15.5-15.5s7-15.5,15.5-15.5c8.5,0,15.5,7,15.5,15.5S-457.6,400-466.1,400z
			 M-466.1,370c-8,0-14.5,6.5-14.5,14.5s6.5,14.5,14.5,14.5c8,0,14.5-6.5,14.5-14.5S-458.1,370-466.1,370z"/>
	</g>
</g>
</svg>
