<?xml version="1.0" encoding="utf-8"?>
<!-- Generator: Adobe Illustrator 18.1.1, SVG Export Plug-In . SVG Version: 6.00 Build 0)  -->
<!DOCTYPE svg PUBLIC "-//W3C//DTD SVG 1.1//EN" "http://www.w3.org/Graphics/SVG/1.1/DTD/svg11.dtd">
<svg version="1.1" id="Layer_1" xmlns="http://www.w3.org/2000/svg" xmlns:xlink="http://www.w3.org/1999/xlink" x="0px" y="0px"
	 viewBox="128 0 768 768" enable-background="new 128 0 768 768" xml:space="preserve">
<path fill="#FFFFFF" d="M512,547.7c26.7-68,70.3-155.3,116.4-206.2l-104.3,36.4V220.3h-24.3v157.6l-104.3-36.4
	C441.7,394.9,485.3,479.8,512,547.7z M136,384C136,177.8,305.8,8,512,8s376,169.8,376,376S718.2,760,512,760S136,590.2,136,384z
	 M863.7,384c0-194.1-157.6-351.7-351.7-351.7S160.3,189.9,160.3,384S317.9,735.7,512,735.7S863.7,578.1,863.7,384z"/>
</svg>
