<?xml version="1.0" encoding="utf-8"?>
<!-- Generator: Adobe Illustrator 18.1.1, SVG Export Plug-In . SVG Version: 6.00 Build 0)  -->
<!DOCTYPE svg PUBLIC "-//W3C//DTD SVG 1.1//EN" "http://www.w3.org/Graphics/SVG/1.1/DTD/svg11.dtd">
<svg version="1.1" id="Layer_1" xmlns="http://www.w3.org/2000/svg" xmlns:xlink="http://www.w3.org/1999/xlink" x="0px" y="0px"
	 viewBox="0 0 1024 768" enable-background="new 0 0 1024 768" xml:space="preserve">
<path fill="#818285" d="M512,550c27.3-69.4,71.8-158.6,118.9-210.6l-106.5,37.2v-161h-24.8v161l-106.5-37.2
	C440.2,393.9,484.7,480.6,512,550z"/>
<path fill="#818285" d="M128,384C128,173.4,301.4,0,512,0s384,173.4,384,384S722.6,768,512,768S128,594.6,128,384z M871.2,384
	c0-198.2-161-359.2-359.2-359.2S152.8,185.8,152.8,384c0,198.2,161,359.2,359.2,359.2S871.2,582.2,871.2,384z"/>
</svg>
